HIERARCHY
ROOT hip
{
  OFFSET 0 0 0
  CHANNELS 6 Xposition Yposition Zposition Zrotation Yrotation Xrotation
  JOINT abdomen
  {
    OFFSET 0 20.6881 -0.73152
    CHANNELS 3 Zrotation Xrotation Yrotation
    JOINT chest
    {
      OFFSET 0 11.7043 -0.48768
      CHANNELS 3 Zrotation Xrotation Yrotation
      JOINT neck
      {
        OFFSET 0 22.1894 -2.19456
        CHANNELS 3 Zrotation Xrotation Yrotation
        JOINT head
        {
          OFFSET -0.24384 7.07133 1.2192
          CHANNELS 3 Zrotation Xrotation Yrotation
          JOINT leftEye
          {
            OFFSET 4.14528 8.04674 8.04672
            CHANNELS 3 Zrotation Xrotation Yrotation
            End Site
            {
              OFFSET 1 0 0
            }
          }
          JOINT rightEye
          {
            OFFSET -3.6576 8.04674 8.04672
            CHANNELS 3 Zrotation Xrotation Yrotation
            End Site
            {
              OFFSET 1 0 0
            }
          }
        }
      }
      JOINT rCollar
      {
        OFFSET -2.68224 19.2634 -4.8768
        CHANNELS 3 Zrotation Xrotation Yrotation
        JOINT rShldr
        {
          OFFSET -8.77824 -1.95073 1.46304
          CHANNELS 3 Zrotation Xrotation Yrotation
          JOINT rForeArm
          {
            OFFSET -28.1742 -1.7115 0.48768
            CHANNELS 3 Zrotation Xrotation Yrotation
            JOINT rHand
            {
              OFFSET -22.5879 0.773209 7.07136
              CHANNELS 3 Zrotation Xrotation Yrotation
              JOINT rThumb1
              {
                OFFSET -1.2192 -0.487915 3.41376
                CHANNELS 3 Zrotation Xrotation Yrotation
                JOINT rThumb2
                {
                  OFFSET -3.37035 -0.52449 3.41376
                  CHANNELS 3 Zrotation Xrotation Yrotation
                  End Site
                  {
                    OFFSET -1.78271 -1.18214 1.43049
                  }
                }
              }
              JOINT rIndex1
              {
                OFFSET -7.75947 0.938293 5.60832
                CHANNELS 3 Zrotation Xrotation Yrotation
                JOINT rIndex2
                {
                  OFFSET -2.54057 -0.884171 1.56538
                  CHANNELS 3 Zrotation Xrotation Yrotation
                  End Site
                  {
                    OFFSET -1.62519 -0.234802 1.16502
                  }
                }
              }
              JOINT rMid1
              {
                OFFSET -8.24714 1.18213 3.41376
                CHANNELS 3 Zrotation Xrotation Yrotation
                JOINT rMid2
                {
                  OFFSET -3.10165 -0.590103 1.0647
                  CHANNELS 3 Zrotation Xrotation Yrotation
                  End Site
                  {
                    OFFSET -2.48547 -0.328903 0.83742
                  }
                }
              }
              JOINT rRing1
              {
                OFFSET -8.82822 0.546677 1.51678
                CHANNELS 3 Zrotation Xrotation Yrotation
                JOINT rRing2
                {
                  OFFSET -2.60934 -0.819778 -0.0198488
                  CHANNELS 3 Zrotation Xrotation Yrotation
                  End Site
                  {
                    OFFSET -2.33842 -0.294052 0.168128
                  }
                }
              }
              JOINT rPinky1
              {
                OFFSET -8.27202 -0.0477905 -0.4584
                CHANNELS 3 Zrotation Xrotation Yrotation
                JOINT rPinky2
                {
                  OFFSET -1.82734 -0.647385 -0.700984
                  CHANNELS 3 Zrotation Xrotation Yrotation
                  End Site
                  {
                    OFFSET -1.69225 -0.51767 -0.607171
                  }
                }
              }
            }
          }
        }
      }
      JOINT lCollar
      {
        OFFSET 2.68224 19.2634 -4.8768
        CHANNELS 3 Zrotation Xrotation Yrotation
        JOINT lShldr
        {
          OFFSET 8.77824 -1.95073 1.46304
          CHANNELS 3 Zrotation Xrotation Yrotation
          JOINT lForeArm
          {
            OFFSET 28.1742 -1.7115 0.48768
            CHANNELS 3 Zrotation Xrotation Yrotation
            JOINT lHand
            {
              OFFSET 22.5879 0.773209 7.07136
              CHANNELS 3 Zrotation Xrotation Yrotation
              JOINT lThumb1
              {
                OFFSET 1.2192 -0.487915 3.41376
                CHANNELS 3 Zrotation Xrotation Yrotation
                JOINT lThumb2
                {
                  OFFSET 3.37035 -0.52449 3.41376
                  CHANNELS 3 Zrotation Xrotation Yrotation
                  End Site
                  {
                    OFFSET 1.78271 -1.18214 1.43049
                  }
                }
              }
              JOINT lIndex1
              {
                OFFSET 7.75947 0.938293 5.60832
                CHANNELS 3 Zrotation Xrotation Yrotation
                JOINT lIndex2
                {
                  OFFSET 2.54057 -0.884171 1.56538
                  CHANNELS 3 Zrotation Xrotation Yrotation
                  End Site
                  {
                    OFFSET 1.62519 -0.234802 1.16502
                  }
                }
              }
              JOINT lMid1
              {
                OFFSET 8.24714 1.18213 3.41376
                CHANNELS 3 Zrotation Xrotation Yrotation
                JOINT lMid2
                {
                  OFFSET 3.10165 -0.590103 1.0647
                  CHANNELS 3 Zrotation Xrotation Yrotation
                  End Site
                  {
                    OFFSET 2.48547 -0.328903 0.83742
                  }
                }
              }
              JOINT lRing1
              {
                OFFSET 8.82822 0.546677 1.51678
                CHANNELS 3 Zrotation Xrotation Yrotation
                JOINT lRing2
                {
                  OFFSET 2.60934 -0.819778 -0.0198488
                  CHANNELS 3 Zrotation Xrotation Yrotation
                  End Site
                  {
                    OFFSET 2.33842 -0.294052 0.168128
                  }
                }
              }
              JOINT lPinky1
              {
                OFFSET 8.27202 -0.0477905 -0.4584
                CHANNELS 3 Zrotation Xrotation Yrotation
                JOINT lPinky2
                {
                  OFFSET 1.82734 -0.647385 -0.700984
                  CHANNELS 3 Zrotation Xrotation Yrotation
                  End Site
                  {
                    OFFSET 1.69225 -0.51767 -0.607171
                  }
                }
              }
            }
          }
        }
      }
    }
  }
  JOINT rButtock
  {
    OFFSET -8.77824 4.35084 1.2192
    CHANNELS 3 Zrotation Xrotation Yrotation
    JOINT rThigh
    {
      OFFSET 0 -1.70687 -2.19456
      CHANNELS 3 Zrotation Xrotation Yrotation
      JOINT rShin
      {
        OFFSET 0 -36.8199 0.73152
        CHANNELS 3 Zrotation Xrotation Yrotation
        JOINT rFoot
        {
          OFFSET 0.73152 -45.1104 -5.12064
          CHANNELS 3 Zrotation Xrotation Yrotation
          End Site
          {
            OFFSET -1.1221 -3.69964 12.103
          }
        }
      }
    }
  }
  JOINT lButtock
  {
    OFFSET 8.77824 4.35084 1.2192
    CHANNELS 3 Zrotation Xrotation Yrotation
    JOINT lThigh
    {
      OFFSET 0 -1.70687 -2.19456
      CHANNELS 3 Zrotation Xrotation Yrotation
      JOINT lShin
      {
        OFFSET 0 -36.8199 0.73152
        CHANNELS 3 Zrotation Xrotation Yrotation
        JOINT lFoot
        {
          OFFSET -0.73152 -45.1104 -5.12064
          CHANNELS 3 Zrotation Xrotation Yrotation
          End Site
          {
            OFFSET 1.1221 -3.69964 12.103
          }
        }
      }
    }
  }
}
MOTION
Frames:	8
Frame Time:	0.00833333
0.0 0.0 0.0 0.0 0.0 0.0 0.0 0.0 0.0 0.0 0.0 0.0 0.0 0.0 0.0 0.0 0.0 0.0 0.0 0.0 0.0 0.0 0.0 0.0 0.0 0.0 0.0 0.0 0.0 0.0 0.0 0.0 0.0 0.0 0.0 0.0 0.0 0.0 0.0 0.0 0.0 0.0 0.0 0.0 0.0 0.0 0.0 0.0 0.0 0.0 0.0 0.0 0.0 0.0 0.0 0.0 0.0 0.0 0.0 0.0 0.0 0.0 0.0 0.0 0.0 0.0 0.0 0.0 0.0 0.0 0.0 0.0 0.0 0.0 0.0 0.0 0.0 0.0 0.0 0.0 0.0 0.0 0.0 0.0 0.0 0.0 0.0 0.0 0.0 0.0 0.0 0.0 0.0 0.0 0.0 0.0 0.0 0.0 0.0 0.0 0.0 0.0 0.0 0.0 0.0 0.0 0.0 0.0 0.0 0.0 0.0 0.0 0.0 0.0 0.0 0.0 0.0 0.0 0.0 0.0 0.0 0.0 0.0 0.0 0.0 0.0 0.0 0.0 0.0 0.0 0.0 0.0
-75.7207 84.2391 0.3381 -92.509862 86.075914 -86.225324 1.58884 -2.359087 0.131579 -0.881968 1.793696 2.914241 -6.075093 5.556402 -43.403239 10.414229 -2.452737 41.233655 -0.001566 -0.0 0.003346 -0.001336 0.0 -0.002378 2.457247 -18.187009 -3.663174 -149.943266 -26.184254 -175.117674 -3.664812 -43.478838 -50.311778 157.241555 -40.965072 136.912804 -179.372572 -16.877504 89.35951 -142.599647 11.565373 74.886377 -151.353121 -17.15765 121.134918 8.691514 5.199723 -9.067944 -89.83484 60.701117 81.262786 -86.698738 64.001462 78.707829 -145.120442 0.268461 -179.211056 11.192219 13.761124 -7.378142 -161.708467 70.564874 -151.0203 -24.580249 -39.283568 -24.907469 3.76737 17.921133 -4.640489 146.96784 11.052076 -169.063179 -176.187145 28.655228 166.596712 11.501641 30.299934 -1.761113 163.242033 -0.922456 -89.402833 136.525724 6.062322 -67.004329 150.886277 -16.290849 -120.979552 -145.127224 -67.147786 -87.093263 141.108622 35.601044 -129.174122 174.312887 -36.972638 -143.238206 -0.000725 0.022635 -0.007016 152.679307 25.119025 -168.030091 145.174512 12.068155 141.821436 137.506139 -12.81553 133.827609 179.990703 75.748645 0.006361 -176.887953 63.755514 -180.0 -3.050328 -21.656903 -5.741819 143.136834 15.992242 -168.539123 -0.002517 -0.001834 -0.001258 1.871241 -7.683416 -166.268233 5.417895 -9.109847 90.142214 58.376167 -76.744616 152.546972
-75.3977 84.4526 0.7020000000000001 -63.578594 85.167565 -55.61584 3.78092 -9.415686 -158.003505 -0.193515 -8.753929 164.325133 10.359218 19.32121 141.057449 -8.032623 27.454316 -145.49598 0.005041 -0.0 -0.001796 -0.000676 0.0 -0.001766 -155.416825 -2.951396 161.718769 80.031417 -78.602472 108.400013 162.85437 -54.773716 -172.71139 -15.008767 49.379454 5.760139 6.465158 -6.452054 -0.635947 32.216954 -64.65076 -23.048053 -10.570353 15.014287 6.862944 3.335467 8.913287 1.147675 -86.29485 60.960821 77.857484 -42.126428 58.439246 36.393517 0.005455 1.771678 0.554563 8.752706 15.808765 2.136816 -87.577239 -50.207357 -85.929008 -19.866396 -37.406573 -22.097433 -3.457275 -62.668881 13.248965 -24.310837 -4.657199 26.242305 -138.153547 -67.951026 -80.2556 -178.940146 1.567448 -144.081594 78.030441 38.690123 -42.412595 -27.53428 -28.356775 -19.564945 -169.571635 -65.843288 -109.958362 169.54767 -36.836272 -115.117508 0.570994 1.648329 -0.322515 -2.679589 1.652562 -0.19815 -0.001436 0.063996 -0.018572 -9.07231 14.186168 -1.886566 -4.763382 13.903593 -4.302478 94.816947 -51.938498 93.898223 -179.984428 75.748619 -0.010654 -176.347015 58.259396 175.70681 7.012935 -19.002874 104.457717 129.309292 38.563047 -40.974381 179.963248 75.750397 0.030239 -171.595643 66.820545 -4.923661 -5.675299 14.513232 -135.718021 25.28931 3.557755 138.762167
-75.4861 84.699 1.1525 -63.013491 84.593933 -53.411721 4.213149 -7.014236 0.68995 -3.457918 5.144098 8.457014 -7.251303 12.344307 -67.072629 22.80524 -3.582079 60.315749 -0.002454 -0.0 0.00141 -0.002006 -0.0 0.001517 -14.147735 43.061889 15.995186 119.29215 -41.988658 55.536393 -16.196747 37.521257 48.089908 -2.335221 22.185352 2.118762 -78.031203 38.688262 42.412501 157.412221 -52.115384 68.573844 -123.870989 22.788172 104.454801 -86.727347 55.167892 64.690707 -0.571519 1.648163 0.323334 -155.962361 15.617199 139.904857 -145.117185 0.226517 -179.199855 11.109891 63.296514 -0.678898 19.44652 67.282717 13.092857 -76.776913 -54.192149 -75.465624 -3.191973 -25.838932 5.07378 49.259533 -73.291712 118.138567 32.829768 -69.389294 100.74075 -168.315723 -32.824495 -141.265392 89.135657 38.426744 -50.299475 16.76782 -10.209003 -30.95587 108.428021 34.161773 -91.743367 -82.734679 -66.457899 -35.635651 0.057968 0.167884 -0.031417 42.069446 58.557259 -36.105286 0.000786 -0.018614 0.005282 145.015956 -79.291383 167.631309 141.788759 2.139997 138.768385 21.178152 -36.845265 22.939077 179.993887 75.749049 0.004183 -174.891473 53.390568 -167.239709 -10.317496 -16.834975 -140.148615 5.919392 -64.12768 -76.948621 -179.998611 75.750856 -0.001433 -169.748807 63.651776 11.264623 10.762035 12.25279 80.843476 -29.187081 -41.276152 -116.230954
-75.47460000000001 84.8392 1.3967 -56.660755 84.507796 -45.629932 6.487074 -13.133471 -153.415394 0.405928 -12.023072 164.860342 -7.245956 14.806644 -75.751229 27.32157 -2.104874 66.986118 0.000318 -0.0 -0.002808 0.000318 -0.0 -0.002808 -159.220764 -48.028519 170.415026 -115.900417 -42.174173 -68.198812 150.446951 -13.858633 -149.118247 -46.319638 75.295959 33.237036 88.928449 -50.832015 37.599389 -137.616703 17.928201 100.507547 -152.465442 -19.225985 121.47385 5.379895 11.985186 -7.653646 -141.109072 35.601068 129.173967 -128.864711 51.867287 118.160703 -145.119362 0.268671 -179.210638 12.11847 44.873262 -3.844601 -25.516611 -38.071554 -24.578133 -147.018569 12.95186 -143.689845 121.237125 60.263858 -124.880183 85.273629 9.411505 -62.028776 175.637628 1.431919 140.261479 7.601769 10.015468 1.113775 170.838539 -8.521521 -89.950386 -116.92755 -60.973927 -85.583635 50.386688 40.826617 -40.024253 155.372019 3.27543 -111.004462 0.570853 1.648433 -0.321683 -3.441585 -0.604282 0.105487 -0.004719 0.917763 -0.288443 -6.701 30.475551 -4.843388 -39.964442 85.642419 0.876287 149.079041 13.581113 143.080482 -0.000117 0.000657 -0.0 3.674324 -23.316846 1.523146 6.438702 24.775882 108.142962 -92.092144 -39.364175 -174.952958 -0.000117 0.000657 -0.0 5.121528 -14.736118 82.61184 21.673079 3.929404 97.801838 172.564721 7.657003 162.433489
-75.4128 84.9333 1.6621000000000001 -55.64372 84.222409 -44.238768 3.833325 -12.660772 110.678402 10.06814 -0.652053 -98.652078 -5.516447 20.945166 -111.126197 31.433109 13.81177 97.164821 -0.000715 0.0 -0.001183 -0.000715 0.0 -0.001183 -158.468591 -30.055556 166.919682 128.06722 -25.12066 -151.295967 168.371425 48.928183 108.056877 158.767625 -30.026529 142.142021 -87.918257 38.514522 49.436033 -148.122457 -29.072825 80.649543 -1.161452 1.861264 0.667473 10.554153 1.226806 -0.357183 2.100115 -6.305359 -1.082269 -179.683411 -48.708292 141.474887 -145.118596 0.186043 -179.185582 11.58786 58.795962 -1.663092 27.132089 80.263527 10.030619 -86.758716 -52.90462 -85.181473 3.670502 17.552171 -4.527617 95.501112 -23.729215 -145.349861 -94.946824 28.177897 101.741294 114.315218 68.497999 -92.011509 175.072589 -12.722443 -89.816916 -29.412636 -66.768779 -23.321734 0.326649 0.530393 -0.184741 60.91766 48.076025 -46.656499 -0.541452 -1.589873 0.29511 -3.088092 0.4066 -0.028162 145.122058 1.975804 179.748079 152.192636 -26.992043 174.941037 1.20331 -3.04746 1.116728 86.067909 -53.781327 85.633587 -0.0 0.000597 0.000129 4.102664 -24.540905 1.780666 -1.267854 17.594602 3.296442 -158.061609 -18.457645 23.850767 -6.2e-05 0.000597 8e-05 6.427851 -14.858649 23.717417 -1.174967 12.785276 -83.285764 179.337578 -86.285634 -96.881499
-75.3312 85.00999999999999 1.9292 -55.214887 84.026735 -43.656435 6.406927 -9.68119 1.346021 -5.220747 6.389513 11.404311 13.066517 12.352949 83.344702 -27.295864 12.859983 -90.510612 0.002353 0.0 0.001163 -0.003337 -0.0 0.001672 -157.797747 -22.115748 165.466195 108.166709 18.184374 -164.416044 0.301692 -0.059189 49.010803 -7.783169 40.754797 3.770089 -85.829343 38.631121 47.955484 -90.153935 -4.87221 65.584528 60.461163 -70.523882 15.70785 -3.394087 28.619527 3.977695 -160.889583 -7.337292 143.346264 29.959194 -60.067743 7.100437 -145.121252 1.974452 -179.74684 11.906489 35.309133 -4.997108 31.500677 83.083153 6.659437 0.467462 -2.356989 -1.737704 143.299648 38.837733 -147.737974 78.710159 5.928728 -33.458551 178.361095 -1.501003 136.905476 8.668539 12.452676 0.858468 171.602936 -9.286427 -89.950032 45.596281 -16.929292 -8.032022 -45.28255 -63.865446 -4.306113 -3.393391 19.975541 -0.542477 -173.126699 -66.298165 -137.616625 -18.567027 -43.27843 -0.424832 -0.000968 0.064084 -0.018444 -11.143068 -14.716586 1.81834 -11.107584 36.912457 -9.480923 -3.036111 3.474456 -0.796239 -0.001322 0.001244 -0.000661 4.215454 -24.274086 1.812034 6.582725 23.171722 94.172131 103.821981 86.902068 171.200547 0.00883 -0.000381 0.004415 6.572153 -15.09166 23.869464 11.741331 12.711467 66.440127 -92.187561 60.70811 -5.897092
-75.2477 85.0612 2.1586000000000003 -53.594312 83.94278 -41.953522 6.564885 -9.692151 1.38072 -5.194283 6.12441 11.317235 13.463926 16.321907 107.8709 -23.356357 24.104845 -113.663071 -0.003395 -0.0 0.003574 -0.003395 -0.0 0.003574 -13.743825 42.431442 15.569657 40.713698 37.607364 67.980027 -3.073715 -68.60921 41.043601 -7.596047 39.529442 3.530303 -175.19774 -12.846269 89.807849 41.361839 -68.822023 31.806819 12.216831 -21.784642 -5.120027 -175.436632 -35.047868 107.008224 -12.842932 28.997216 9.149265 -4.627864 20.812218 4.287261 -145.118873 0.226898 -179.198966 -146.795261 -46.780867 -169.172045 -133.876286 -15.63877 -131.333422 16.582716 41.537976 6.089281 13.743138 42.431773 -15.56836 151.464116 -33.354049 -103.229224 -10.209839 -60.393459 71.594402 -176.790812 -11.834216 -143.520651 -82.305309 -50.136745 -32.95448 158.871766 -28.100018 -127.444192 77.667247 43.029576 -64.538619 156.775739 2.495417 -112.774681 36.035034 51.723784 -29.831127 169.971969 -25.747637 -144.2032 145.119929 0.268209 179.211523 146.609707 -47.256168 168.97277 87.574092 -50.207568 85.930182 146.953213 13.277101 143.008767 -6.8e-05 -0.000726 8.8e-05 4.242185 -23.383672 -0.0 4.953639 25.824211 129.343012 86.464046 54.75511 -175.751379 -179.991954 75.748529 -0.00662 -166.824442 60.090932 0.0 0.408612 8.431959 -21.868889 27.286865 -1.348236 14.656823
